PathFileType	4	(X/Y/Z)	Walk7.trc
DataRate	CameraRate	NumFrames	NumMarkers	Units	OrigDataRate	OrigDataStartFrame	OrigNumFrames
200.000000	200.000000	4	71	mm	200.000000	318	658
Frame#	Times		T10		RPSI		LowerBodyModelVer		RTH4		RElbow		C7		LBHD		LToe		LMT5		RBHD		RBack		LMT1		LTB1		LWRU		LLMAL		LTB3		RTH2		RUA1		LElbowM		LTB4		LLFC		LTB2		LTH3		RLFC		LACR1		RTB2		RTH3		RMFC		RKJC		RTB3		LASI		LElbow		LUA1		RTB1		RToe		LMFC		LKJC		RFA1		RWRU		RCAR		RMT1		RTB4		RWRR		RCAL		RMT5		RMMAL		RLMAL		LFHD		RFHD		LPSI		SACR		LCAR		LMMAL		LTH4		LCAL		RASI		LTH1		LHJC		MidPelvis		OPelvis		PELOrigin		RHJC		XPelvis		YPelvis		ZPelvis		LWRR		LTH2		RTH1		RACR1		RElbowM		STRN
			X1	Y1	Z1	X2	Y2	Z2	X3	Y3	Z3	X4	Y4	Z4	X5	Y5	Z5	X6	Y6	Z6	X7	Y7	Z7	X8	Y8	Z8	X9	Y9	Z9	X10	Y10	Z10	X11	Y11	Z11	X12	Y12	Z12	X13	Y13	Z13	X14	Y14	Z14	X15	Y15	Z15	X16	Y16	Z16	X17	Y17	Z17	X18	Y18	Z18	X19	Y19	Z19	X20	Y20	Z20	X21	Y21	Z21	X22	Y22	Z22	X23	Y23	Z23	X24	Y24	Z24	X25	Y25	Z25	X26	Y26	Z26	X27	Y27	Z27	X28	Y28	Z28	X29	Y29	Z29	X30	Y30	Z30	X31	Y31	Z31	X32	Y32	Z32	X33	Y33	Z33	X34	Y34	Z34	X35	Y35	Z35	X36	Y36	Z36	X37	Y37	Z37	X38	Y38	Z38	X39	Y39	Z39	X40	Y40	Z40	X41	Y41	Z41	X42	Y42	Z42	X43	Y43	Z43	X44	Y44	Z44	X45	Y45	Z45	X46	Y46	Z46	X47	Y47	Z47	X48	Y48	Z48	X49	Y49	Z49	X50	Y50	Z50	X51	Y51	Z51	X52	Y52	Z52	X53	Y53	Z53	X54	Y54	Z54	X55	Y55	Z55	X56	Y56	Z56	X57	Y57	Z57	X58	Y58	Z58	X59	Y59	Z59	X60	Y60	Z60	X61	Y61	Z61	X62	Y62	Z62	X63	Y63	Z63	X64	Y64	Z64	X65	Y65	Z65	X66	Y66	Z66	X67	Y67	Z67	X68	Y68	Z68	X69	Y69	Z69	X70	Y70	Z70	X71	Y71	Z71

318	1.59	-803.6	1208	10.502	-825.6	1027.5	34.754	9	2014	4	-720.73	633.86	162.79	-753.43	1068.8	229.75	-718.93	1462.4	7.8918	-683.65	1590.4	-58.047	-236.44	120.54	-85.97	-297.84	68.702	-138.02	-680.3	1585.7	78.854	-740.32	1350.5	162.72	-269.46	83.771	-63.461	-470.65	412.2	-61.031	-820.71	807.24	-273.04	-421.56	70.86	-124.5	-427.66	232.14	-69.037	-656.89	635.2	123.51	-642.64	1227.4	253.58	-836.12	1092.5	-194.96	-450.13	322.17	-64.21	-560.33	514.34	-135.85	-463.54	320.95	-134.86	-569.64	571.59	-147.94	-738.59	494.5	135.08	-636.2	1393.3	-163.83	-795.1	260	120.35	-731.88	542.83	141.36	-769.26	469.05	12.02	-753.92	481.77	73.552	-834.1	180.92	45.671	-625.27	1007.9	-141.18	-796.06	1088.9	-269.98	-717.13	1206.4	-237.34	-746.97	345.44	49.128	-727.24	17.804	97.521	-564.96	483.46	-7.3512	-562.64	498.9	-71.6	-658.2	916.46	300.37	-623.32	802.44	264.4	-550.9	795.15	285.14	-783.08	22.068	58.113	-792.02	256.11	48.926	-553.89	842.5	237.06	-991.75	40.78	46.569	-825.47	19.496	140.18	-905.42	66.781	22.613	-929.69	73.473	101.41	-505.28	1619.5	-31.641	-503.27	1616.8	50.5	-819.28	1022.4	-33.677	-822.44	1024.9	0.53824	-757.79	769.48	-261.2	-402.47	89.053	-43.922	-598.56	660.48	-164.87	-470.39	22.782	-73.439	-649	973.87	171.97	-630.14	748.63	-174.93	-718.81	916.7	-107.2	-729.79	1007.9	7.9663	-637.13	990.89	15.394	-637.13	990.89	15.394	-734.94	893.55	105.74	-558.53	976.68	19.806	-623.52	1069.1	24.932	-643.14	982.27	94.701	-752.58	813.48	-224.6	-548.89	681.5	-115.11	-715.44	728.47	180.69	-608.45	1403.4	160.33	-713.05	1069.6	306.2	-518.78	1208.1	2.1239
319	1.595	-798.2	1207.4	9.76	-820.19	1026.9	34.025	9	2014	4	-716.73	633.34	162.13	-748.35	1068.4	228.71	-713.77	1461.7	6.6877	-678.22	1589.8	-59.22	-235.51	116.86	-86.403	-298	65.743	-138.84	-675.07	1585.2	77.631	-735.07	1350.1	161.82	-268.68	80.183	-64.325	-465.66	410.45	-60.995	-815.61	806.29	-273.64	-421.2	69.082	-124.54	-425.18	229.86	-68.762	-653.26	634.12	122.97	-637.22	1226.8	252.49	-830.89	1091.7	-195.81	-446.45	320.21	-64.194	-554.07	513.89	-135.81	-459.98	319.12	-134.68	-562.34	572.22	-148.52	-735.5	493.8	134.48	-630.86	1392.4	-164.98	-793.48	259.65	119.99	-728.61	542.34	140.9	-766.41	468.55	11.6	-750.96	481.17	73.041	-833.06	180.98	45.376	-620.19	1007.1	-141.9	-790.68	1088.2	-270.84	-711.87	1205.5	-238.29	-744.92	344.76	48.971	-727.22	17.786	97.49	-558.2	483.51	-6.6824	-556.13	498.7	-71.245	-653.32	915.81	299.51	-618.42	801.69	263.73	-546.23	794.32	284.39	-782.99	21.98	58.15	-790.68	257.57	46.704	-549.04	841.7	236.15	-991.54	41.753	46.733	-825.46	19.564	140.01	-905.1	67.103	22.721	-929.35	73.895	101.46	-499.93	1618.9	-32.742	-498.04	1616.2	49.368	-813.99	1021.8	-34.526	-817.09	1024.3	-0.25034	-752.87	768.48	-261.55	-401.47	86.622	-43.924	-591.54	660.94	-165.91	-470.52	21.951	-73.34	-643.5	973.19	171.31	-623.45	748.84	-176.91	-713.75	915.95	-107.75	-724.47	1007.2	7.2273	-631.85	990.14	14.705	-631.85	990.14	14.705	-729.6	892.9	105.24	-553.24	975.88	19.011	-618.17	1068.4	24.192	-637.75	981.56	94.024	-747.55	812.65	-225.5	-543.03	682.28	-114.93	-710.87	727.69	180.06	-603.08	1402.9	159.34	-707.67	1069.2	305.26	-513.28	1207.6	1.2657
320	1.6	-792.7	1206.7	8.9421	-815.04	1026.5	33.308	9	2014	4	-712.85	632.86	161.61	-742.95	1067.9	227.65	-708.44	1461.1	5.4893	-672.96	1588.9	-60.523	-233.92	113.02	-86.896	-298.19	62.124	-139.81	-669.91	1584.6	76.294	-729.81	1349.7	160.78	-267.86	75.827	-65.348	-461.36	408.78	-60.483	-810.39	805.5	-274.07	-420.8	67.078	-124.2	-422.41	227.76	-68.185	-649.7	633.12	122.48	-631.71	1226	251.57	-825.49	1090.9	-196.46	-442.79	318.24	-63.638	-547.87	513.65	-135.64	-456.45	317.37	-134.15	-555.21	572.74	-148.7	-732.45	493.42	134.09	-625.39	1391.7	-165.85	-792.18	259.3	119.71	-725.27	541.83	140.38	-763.53	468.09	11.205	-747.99	480.75	72.647	-832.06	181.16	44.87	-614.97	1006.2	-142.82	-785.35	1087.3	-271.56	-706.63	1204.7	-239.01	-742.88	344.24	48.758	-727.2	17.78	97.465	-551.36	483.54	-6.0342	-549.61	498.6	-70.836	-648.36	915.14	298.68	-613.85	801.11	262.95	-541.72	793.63	283.77	-782.91	21.92	58.202	-789.17	258.51	44.651	-544.17	841.19	235.78	-991.25	42.913	46.771	-825.52	19.614	139.89	-904.84	67.503	22.768	-928.93	74.61	101.46	-494.83	1618.4	-33.78	-493	1615.8	48.31	-808.61	1021.1	-35.273	-811.82	1023.8	-0.98278	-747.54	767.59	-262.12	-400.71	84.559	-43.313	-584.62	661.5	-166.44	-470.69	21.467	-73.429	-638.34	972.41	170.5	-616.63	749.29	-178.78	-708.71	915.21	-108.64	-719.24	1006.5	6.4272	-626.66	989.32	13.837	-626.66	989.32	13.837	-724.6	892.22	104.42	-548.08	974.93	18.145	-612.85	1067.5	23.308	-632.57	980.76	93.158	-742.18	811.72	-226.21	-536.96	683.22	-115.22	-706.54	727.03	179.41	-597.91	1402.3	158.4	-702.59	1068.8	304.49	-508.11	1206.8	0.38946
321	1.605	-787.3	1206.1	8.1193	-809.91	1026	32.596	9	2014	4	-709.03	632.36	160.96	-737.64	1067.6	226.57	-702.93	1460.4	4.4615	-667.57	1588.4	-61.653	-231.63	107.81	-87.29	-297.49	57.915	-140.92	-664.86	1584	75.061	-724.48	1349.3	159.73	-265.43	71.225	-66.515	-456.89	407.39	-60.119	-805.14	804.66	-274.87	-419.85	65.623	-123.27	-419.06	225.96	-67.657	-645.92	632.31	121.84	-626.63	1225.5	250.57	-820.05	1090.1	-197.24	-438.72	316.67	-63.138	-541.87	513.38	-135.78	-453.12	315.75	-133.09	-548.5	573.52	-148.82	-729.04	492.84	133.3	-620.01	1390.9	-166.89	-790.48	258.98	119.38	-721.78	541.38	140.05	-760.53	467.84	10.806	-744.79	480.34	72.055	-831.09	181.65	44.611	-609.81	1005.6	-143.91	-780.06	1086.4	-272.22	-701.23	1203.9	-239.71	-740.64	343.2	48.771	-727.19	17.743	97.392	-544.33	483.58	-5.4834	-543.1	498.48	-70.634	-643.66	914.67	297.83	-609.33	800.64	262.15	-537.24	792.85	283.2	-782.89	21.924	58.225	-787.4	258.55	43.947	-539.62	840.12	235.23	-991.13	43.809	46.746	-825.61	19.556	139.79	-904.34	68.38	22.724	-928.62	75.383	101.38	-489.33	1617.8	-34.832	-487.71	1615.2	47.197	-803.25	1020.5	-35.966	-806.58	1023.3	-1.6848	-742.05	766.64	-262.92	-399.6	82.493	-42.52	-577.88	662.13	-167.01	-470.27	21.891	-73.017	-632.97	971.64	169.75	-609.72	749.67	-180.03	-703.7	914.56	-109.64	-713.99	1005.9	5.6194	-621.39	988.61	12.924	-621.39	988.61	12.924	-719.45	891.48	103.65	-542.83	974.14	17.159	-607.5	1066.8	22.412	-627.25	980.03	92.246	-736.75	811.06	-226.52	-529.93	684.2	-115.96	-702.45	726.42	178.58	-592.53	1401.7	157.35	-697.35	1068.4	303.63	-502.7	1206.2	-0.25536
